           
      <svg version="1.1" id="Layer_1" xmlns="http://www.w3.org/2000/svg" xmlns:xlink="http://www.w3.org/1999/xlink" x="0px" y="0px"
         viewBox="0 0 269.2 247.6" style="enable-background:new 0 0 269.2 247.6;" xml:space="preserve">
      <style type="text/css">
        .st0{fill:#2991C9;stroke:#004884;stroke-miterlimit:10;}
        .st1{fill:#CFCCC8;}
        .st2{fill:#FFFFFF;}
      </style>
      <path class="st0" d="M258.8,165.3H11.6c-3.9,0-7-3.2-7-7V71.2c0-3.8,3.1-7,7-7h247.2c3.9,0,7,3.2,7,7v87.1
        C265.8,162.1,262.6,165.3,258.8,165.3z"/>
      <path class="st1" d="M25,87.5H12.2c-0.5,0-1-0.5-1-1V73.6c0-0.5,0.5-1,1-1H25c0.5,0,1,0.5,1,1v12.8C26,87,25.6,87.5,25,87.5z"/>
      <path class="st1" d="M42.3,87.5H29.5c-0.5,0-1-0.5-1-1V73.6c0-0.5,0.5-1,1-1h12.8c0.5,0,1,0.5,1,1v12.8C43.3,87,42.9,87.5,42.3,87.5
        z"/>
      <path class="st1" d="M50.5,105H37.7c-0.6,0-1-0.5-1-1V91.1c0-0.5,0.4-1,1-1h12.8c0.5,0,1,0.5,1,1V104C51.5,104.5,51.1,105,50.5,105z
        "/>
      <path class="st1" d="M54.7,122.5H41.8c-0.5,0-1-0.5-1-1v-12.8c0-0.5,0.5-1,1-1h12.8c0.5,0,1,0.5,1,1v12.8
        C55.7,122,55.2,122.5,54.7,122.5z"/>
      <path class="st1" d="M63.9,140H51.1c-0.5,0-1-0.4-1-1v-12.8c0-0.5,0.5-1,1-1h12.8c0.5,0,1,0.5,1,1V139C64.9,139.5,64.5,140,63.9,140
        z"/>
      <path class="st1" d="M81.2,140H68.4c-0.6,0-1-0.4-1-1v-12.8c0-0.5,0.4-1,1-1h12.8c0.6,0,1,0.5,1,1V139C82.2,139.5,81.8,140,81.2,140
        z"/>
      <path class="st1" d="M98.5,140H85.6c-0.6,0-1-0.4-1-1v-12.8c0-0.5,0.4-1,1-1h12.8c0.6,0,1,0.5,1,1V139C99.5,139.5,99,140,98.5,140z"
        />
      <path class="st1" d="M115.8,140h-12.8c-0.6,0-1-0.4-1-1v-12.8c0-0.5,0.4-1,1-1h12.8c0.6,0,1,0.5,1,1V139
        C116.8,139.5,116.3,140,115.8,140z"/>
      <path class="st1" d="M133,140h-12.8c-0.5,0-1-0.4-1-1v-12.8c0-0.5,0.5-1,1-1H133c0.6,0,1,0.5,1,1V139C134,139.5,133.6,140,133,140z"
        />
      <path class="st1" d="M150.3,140h-12.8c-0.6,0-1-0.4-1-1v-12.8c0-0.5,0.4-1,1-1h12.8c0.6,0,1,0.5,1,1V139
        C151.3,139.5,150.9,140,150.3,140z"/>
      <path class="st1" d="M167.6,140h-12.8c-0.6,0-1-0.4-1-1v-12.8c0-0.5,0.4-1,1-1h12.8c0.6,0,1,0.5,1,1V139
        C168.6,139.5,168.1,140,167.6,140z"/>
      <path class="st1" d="M184.9,140H172c-0.5,0-1-0.4-1-1v-12.8c0-0.5,0.5-1,1-1h12.8c0.5,0,1,0.5,1,1V139
        C185.9,139.5,185.4,140,184.9,140z"/>
      <path class="st1" d="M202.2,140h-12.8c-0.6,0-1-0.4-1-1v-12.8c0-0.5,0.4-1,1-1h12.8c0.6,0,1,0.5,1,1V139
        C203.2,139.5,202.7,140,202.2,140z"/>
      <path class="st1" d="M219.4,140h-12.8c-0.6,0-1-0.4-1-1v-12.8c0-0.5,0.4-1,1-1h12.8c0.6,0,1,0.5,1,1V139
        C220.4,139.5,220,140,219.4,140z"/>
      <path class="st1" d="M206,157.5h-12.8c-0.6,0-1-0.4-1-1v-12.8c0-0.6,0.4-1,1-1H206c0.6,0,1,0.4,1,1v12.8
        C207,157,206.6,157.5,206,157.5z"/>
      <path class="st1" d="M223.5,157.5h-12.8c-0.5,0-1-0.4-1-1v-3.9c0-0.6,0.5-1,1-1h12.8c0.5,0,1,0.4,1,1v3.9
        C224.5,157,224.1,157.5,223.5,157.5z"/>
      <path class="st1" d="M240.5,157.5h-12.8c-0.6,0-1-0.4-1-1v-3.9c0-0.6,0.4-1,1-1h12.8c0.6,0,1,0.4,1,1v3.9
        C241.5,157,241.1,157.5,240.5,157.5z"/>
      <path class="st1" d="M240.5,149.2h-12.8c-0.6,0-1-0.5-1-1v-3.9c0-0.6,0.4-1,1-1h12.8c0.6,0,1,0.4,1,1v3.9
        C241.5,148.8,241.1,149.2,240.5,149.2z"/>
      <path class="st1" d="M257.5,157.5h-12.8c-0.5,0-1-0.4-1-1v-3.9c0-0.6,0.5-1,1-1h12.8c0.5,0,1,0.4,1,1v3.9
        C258.5,157,258.1,157.5,257.5,157.5z"/>
      <path class="st1" d="M71.9,122.5H59c-0.5,0-1-0.5-1-1v-12.8c0-0.5,0.5-1,1-1h12.8c0.5,0,1,0.5,1,1v12.8
        C72.9,122,72.4,122.5,71.9,122.5z"/>
      <path class="st1" d="M89.1,122.5H76.3c-0.6,0-1-0.5-1-1v-12.8c0-0.5,0.4-1,1-1h12.8c0.6,0,1,0.5,1,1v12.8
        C90.1,122,89.7,122.5,89.1,122.5z"/>
      <path class="st1" d="M106.3,122.5H93.5c-0.5,0-1-0.5-1-1v-12.8c0-0.5,0.5-1,1-1h12.8c0.5,0,1,0.5,1,1v12.8
        C107.3,122,106.9,122.5,106.3,122.5z"/>
      <path class="st1" d="M123.6,122.5h-12.8c-0.6,0-1-0.5-1-1v-12.8c0-0.5,0.4-1,1-1h12.8c0.6,0,1,0.5,1,1v12.8
        C124.6,122,124.1,122.5,123.6,122.5z"/>
      <path class="st1" d="M140.8,122.5h-12.8c-0.5,0-1-0.5-1-1v-12.8c0-0.5,0.5-1,1-1h12.8c0.6,0,1,0.5,1,1v12.8
        C141.8,122,141.3,122.5,140.8,122.5z"/>
      <path class="st1" d="M158,122.5h-12.8c-0.6,0-1-0.5-1-1v-12.8c0-0.5,0.4-1,1-1H158c0.6,0,1,0.5,1,1v12.8
        C159,122,158.6,122.5,158,122.5z"/>
      <path class="st1" d="M175.2,122.5h-12.8c-0.6,0-1-0.5-1-1v-12.8c0-0.5,0.4-1,1-1h12.8c0.6,0,1,0.5,1,1v12.8
        C176.2,122,175.8,122.5,175.2,122.5z"/>
      <path class="st1" d="M192.5,122.5h-12.8c-0.6,0-1-0.5-1-1v-12.8c0-0.5,0.4-1,1-1h12.8c0.6,0,1,0.5,1,1v12.8
        C193.5,122,193,122.5,192.5,122.5z"/>
      <path class="st1" d="M209.7,122.5h-12.8c-0.5,0-1-0.5-1-1v-12.8c0-0.5,0.5-1,1-1h12.8c0.5,0,1,0.5,1,1v12.8
        C210.7,122,210.2,122.5,209.7,122.5z"/>
      <path class="st1" d="M226.9,122.5h-12.8c-0.6,0-1-0.5-1-1v-12.8c0-0.5,0.4-1,1-1h12.8c0.6,0,1,0.5,1,1v12.8
        C227.9,122,227.5,122.5,226.9,122.5z"/>
      <path class="st1" d="M244.1,122.5h-12.8c-0.6,0-1-0.5-1-1v-12.8c0-0.5,0.4-1,1-1h12.8c0.6,0,1,0.5,1,1v12.8
        C245.1,122,244.7,122.5,244.1,122.5z"/>
      <path class="st1" d="M257.5,140h-34c-0.6,0-1-0.4-1-1v-12.8c0-0.5,0.4-1,1-1h34c0.5,0,1,0.5,1,1V139
        C258.5,139.5,258.1,140,257.5,140z"/>
      <path class="st1" d="M46.4,140h-34c-0.6,0-1-0.4-1-1v-12.8c0-0.5,0.4-1,1-1h34c0.5,0,1,0.5,1,1V139C47.4,139.5,47,140,46.4,140z"/>
      <path class="st1" d="M67.8,105H54.9c-0.5,0-1-0.5-1-1V91.1c0-0.5,0.5-1,1-1h12.8c0.6,0,1,0.5,1,1V104C68.8,104.5,68.3,105,67.8,105z
        "/>
      <path class="st1" d="M85,105H72.2c-0.5,0-1-0.5-1-1V91.1c0-0.5,0.5-1,1-1H85c0.6,0,1,0.5,1,1V104C86,104.5,85.5,105,85,105z"/>
      <path class="st1" d="M102.2,105H89.4c-0.6,0-1-0.5-1-1V91.1c0-0.5,0.4-1,1-1h12.8c0.6,0,1,0.5,1,1V104
        C103.2,104.5,102.8,105,102.2,105z"/>
      <path class="st1" d="M119.4,105h-12.8c-0.6,0-1-0.5-1-1V91.1c0-0.5,0.4-1,1-1h12.8c0.6,0,1,0.5,1,1V104
        C120.4,104.5,120,105,119.4,105z"/>
      <path class="st1" d="M136.7,105h-12.8c-0.5,0-1-0.5-1-1V91.1c0-0.5,0.5-1,1-1h12.8c0.6,0,1,0.5,1,1V104
        C137.7,104.5,137.2,105,136.7,105z"/>
      <path class="st1" d="M153.9,105h-12.8c-0.6,0-1-0.5-1-1V91.1c0-0.5,0.4-1,1-1h12.8c0.6,0,1,0.5,1,1V104
        C154.9,104.5,154.4,105,153.9,105z"/>
      <path class="st1" d="M171.1,105h-12.8c-0.6,0-1-0.5-1-1V91.1c0-0.5,0.4-1,1-1h12.8c0.6,0,1,0.5,1,1V104
        C172.1,104.5,171.7,105,171.1,105z"/>
      <path class="st1" d="M188.3,105h-12.8c-0.5,0-1-0.5-1-1V91.1c0-0.5,0.5-1,1-1h12.8c0.5,0,1,0.5,1,1V104
        C189.3,104.5,188.9,105,188.3,105z"/>
      <path class="st1" d="M205.6,105h-12.8c-0.6,0-1-0.5-1-1V91.1c0-0.5,0.4-1,1-1h12.8c0.6,0,1,0.5,1,1V104
        C206.6,104.5,206.1,105,205.6,105z"/>
      <path class="st1" d="M222.8,105H210c-0.6,0-1-0.5-1-1V91.1c0-0.5,0.4-1,1-1h12.8c0.6,0,1,0.5,1,1V104
        C223.8,104.5,223.3,105,222.8,105z"/>
      <path class="st1" d="M240,105h-12.8c-0.6,0-1-0.5-1-1V91.1c0-0.5,0.4-1,1-1H240c0.6,0,1,0.5,1,1V104C241,104.5,240.6,105,240,105z"
        />
      <path class="st1" d="M257.5,90.1h-12.8c-0.6,0-1,0.5-1,1v12.8c0,0.6,0.5,1,1,1h3.7v16.5c0,0.6,0.5,1,1,1h8.1c0.6,0,1-0.5,1-1v-17.5
        v-3.3v-9.5C258.5,90.6,258.1,90.1,257.5,90.1z"/>
      <path class="st1" d="M59.6,87.5H46.7c-0.5,0-1-0.5-1-1V73.6c0-0.5,0.5-1,1-1h12.8c0.6,0,1,0.5,1,1v12.8C60.6,87,60.1,87.5,59.6,87.5
        z"/>
      <path class="st1" d="M76.8,87.5H64c-0.5,0-1-0.5-1-1V73.6c0-0.5,0.5-1,1-1h12.8c0.6,0,1,0.5,1,1v12.8C77.8,87,77.4,87.5,76.8,87.5z"
        />
      <path class="st1" d="M94.1,87.5H81.3c-0.6,0-1-0.5-1-1V73.6c0-0.5,0.4-1,1-1h12.8c0.5,0,1,0.5,1,1v12.8C95.1,87,94.7,87.5,94.1,87.5
        z"/>
      <path class="st1" d="M111.4,87.5H98.5c-0.5,0-1-0.5-1-1V73.6c0-0.5,0.5-1,1-1h12.8c0.6,0,1,0.5,1,1v12.8
        C112.4,87,111.9,87.5,111.4,87.5z"/>
      <path class="st1" d="M128.7,87.5h-12.8c-0.6,0-1-0.5-1-1V73.6c0-0.5,0.4-1,1-1h12.8c0.6,0,1,0.5,1,1v12.8
        C129.7,87,129.2,87.5,128.7,87.5z"/>
      <path class="st1" d="M145.9,87.5h-12.8c-0.6,0-1-0.5-1-1V73.6c0-0.5,0.4-1,1-1h12.8c0.6,0,1,0.5,1,1v12.8
        C146.9,87,146.5,87.5,145.9,87.5z"/>
      <path class="st1" d="M163.2,87.5h-12.8c-0.5,0-1-0.5-1-1V73.6c0-0.5,0.5-1,1-1h12.8c0.5,0,1,0.5,1,1v12.8
        C164.2,87,163.7,87.5,163.2,87.5z"/>
      <path class="st1" d="M180.5,87.5h-12.8c-0.6,0-1-0.5-1-1V73.6c0-0.5,0.4-1,1-1h12.8c0.6,0,1,0.5,1,1v12.8
        C181.5,87,181,87.5,180.5,87.5z"/>
      <path class="st1" d="M197.7,87.5h-12.8c-0.6,0-1-0.5-1-1V73.6c0-0.5,0.4-1,1-1h12.8c0.6,0,1,0.5,1,1v12.8
        C198.7,87,198.3,87.5,197.7,87.5z"/>
      <path class="st1" d="M215,87.5h-12.8c-0.6,0-1-0.5-1-1V73.6c0-0.5,0.4-1,1-1H215c0.6,0,1,0.5,1,1v12.8C216,87,215.5,87.5,215,87.5z"
        />
      <path class="st1" d="M232.3,87.5h-12.8c-0.6,0-1-0.5-1-1V73.6c0-0.5,0.4-1,1-1h12.8c0.6,0,1,0.5,1,1v12.8
        C233.3,87,232.8,87.5,232.3,87.5z"/>
      <path class="st1" d="M256.9,87.5h-20.2c-0.5,0-1-0.5-1-1V73.6c0-0.5,0.5-1,1-1h20.2c0.6,0,1,0.5,1,1v12.8
        C257.9,87,257.4,87.5,256.9,87.5z"/>
      <path class="st1" d="M32.4,105H12.2c-0.5,0-1-0.5-1-1V91.1c0-0.5,0.4-1,1-1h20.2c0.5,0,1,0.5,1,1V104C33.4,104.5,32.9,105,32.4,105z
        "/>
      <path class="st1" d="M32.4,157.5H12.2c-0.5,0-1-0.4-1-1v-12.8c0-0.6,0.4-1,1-1h20.2c0.5,0,1,0.4,1,1v12.8
        C33.4,157,32.9,157.5,32.4,157.5z"/>
      <path class="st1" d="M57.3,157.5H37.1c-0.5,0-1-0.4-1-1v-12.8c0-0.6,0.5-1,1-1h20.2c0.5,0,1,0.4,1,1v12.8
        C58.3,157,57.9,157.5,57.3,157.5z"/>
      <path class="st1" d="M81.8,157.5H61.6c-0.5,0-1-0.4-1-1v-12.8c0-0.6,0.5-1,1-1h20.2c0.6,0,1,0.4,1,1v12.8
        C82.8,157,82.4,157.5,81.8,157.5z"/>
      <path class="st1" d="M188.9,157.5h-20.2c-0.5,0-1-0.4-1-1v-12.8c0-0.6,0.5-1,1-1h20.2c0.6,0,1,0.4,1,1v12.8
        C189.9,157,189.5,157.5,188.9,157.5z"/>
      <path class="st1" d="M164.2,157.5H85.8c-0.5,0-1-0.4-1-1v-12.8c0-0.6,0.5-1,1-1h78.4c0.6,0,1,0.4,1,1v12.8
        C165.2,157,164.8,157.5,164.2,157.5z"/>
      <path class="st1" d="M37.4,122.5H12.2c-0.6,0-1-0.5-1-1v-12.8c0-0.5,0.4-1,1-1h25.2c0.6,0,1,0.5,1,1v12.8
        C38.4,122,37.9,122.5,37.4,122.5z"/>
      <g>
        <path id="path6_44_" class="st2" d="M50.1,145.2c0.5-0.5,1.2-1,1.9-1.1c0.2,0,0.5,0,0.7,0c0.3,0,0.6,0.1,0.8,0.2
          c0.4,0.2,0.8,0.6,1.1,1c0.4,0.6,0.7,1.2,0.8,1.9c0,0.2,0,0.5,0,0.7c-0.2-0.2-0.2-0.4-0.3-0.6c-0.2-0.3-0.3-0.5-0.6-0.7
          c-0.3-0.3-0.8-0.5-1.3-0.5c-0.2,0-0.4,0-0.5,0.1c-0.5,0.1-0.9,0.4-1.3,0.8c-0.1,0.1-0.2,0.3-0.3,0.4c-0.1,0.2-0.2,0.3-0.3,0.5
          c-0.3,0.5-0.4,1.1-0.5,1.7c0,0.2,0,0.5,0,0.7c0.1,0.2,0,0.4,0.2,0.5c0.1,0,0.2,0,0.3-0.1c0.3-0.2,0.5-0.4,0.7-0.7
          c0.3-0.2,0.5-0.5,0.7-0.8c0.1-0.1,0.2-0.3,0.4-0.4c0.3-0.3,0.6-0.5,0.9-0.7c0.2-0.1,0.5-0.2,0.8-0.2c0.3,0,0.7,0.2,0.9,0.5
          c0.3,0.4,0.5,0.9,0.6,1.4c0.1,0.2,0,0.5,0.1,0.8c0,0.9-0.2,1.7-0.5,2.5c-0.1,0.3-0.2,0.6-0.4,0.8c-0.1,0.1-0.1,0.2-0.2,0.2
          c0-0.2,0.1-0.3,0.1-0.5c0-0.2,0-0.4,0-0.6c0-0.3,0-0.6,0-0.9c-0.1-0.3-0.1-0.6-0.2-0.9c0-0.2-0.1-0.4-0.2-0.6
          c-0.1-0.1-0.1-0.2-0.2-0.3c-0.1-0.1-0.3-0.2-0.4-0.2c-0.1,0-0.2,0.1-0.3,0.1c-0.2,0.2-0.5,0.4-0.7,0.6c-0.2,0.2-0.3,0.3-0.6,0.5
          c-0.3,0.2-0.7,0.4-1,0.3c-0.5,0-1-0.3-1.4-0.5c-0.2-0.1-0.4-0.3-0.6-0.4c-0.4-0.4-0.7-1-0.7-1.6c0-0.2-0.1-0.4,0-0.5
          c0-0.7,0.2-1.4,0.5-2.1c0.2-0.3,0.3-0.6,0.6-0.8C49.9,145.4,50,145.3,50.1,145.2z"/>
        <path id="path3742_44_" class="st2" d="M44.3,154.9c-0.5,0.5-1.2,1-1.9,1.1c-0.2,0-0.5,0-0.7,0c-0.3,0-0.6-0.1-0.8-0.2
          c-0.4-0.2-0.8-0.6-1.1-1c-0.4-0.6-0.7-1.2-0.8-1.9c0-0.2,0-0.5,0-0.7c0.2,0.2,0.2,0.4,0.3,0.6c0.2,0.3,0.3,0.5,0.6,0.7
          c0.3,0.3,0.8,0.5,1.3,0.5c0.2,0,0.4,0,0.5-0.1c0.5-0.1,0.9-0.4,1.3-0.8c0.1-0.1,0.2-0.3,0.3-0.4c0.1-0.2,0.2-0.3,0.3-0.5
          c0.3-0.5,0.4-1.1,0.5-1.7c0-0.2,0-0.5,0-0.7c-0.1-0.2,0-0.4-0.2-0.5c-0.1,0-0.2,0-0.3,0.1c-0.3,0.2-0.5,0.4-0.7,0.7
          c-0.3,0.2-0.5,0.5-0.7,0.8c-0.1,0.1-0.2,0.3-0.4,0.4c-0.3,0.3-0.6,0.5-0.9,0.7c-0.2,0.1-0.5,0.2-0.8,0.2c-0.3,0-0.7-0.2-0.9-0.5
          c-0.3-0.4-0.5-0.9-0.6-1.4c-0.1-0.2,0-0.5-0.1-0.8c0-0.9,0.2-1.7,0.5-2.5c0.1-0.3,0.2-0.6,0.4-0.8c0.1-0.1,0.1-0.2,0.2-0.2
          c0,0.2-0.1,0.3-0.1,0.5c0,0.2,0,0.4,0,0.6c0,0.3,0,0.6,0,0.9c0.1,0.3,0.1,0.6,0.2,0.9c0,0.2,0.1,0.4,0.2,0.6
          c0.1,0.1,0.1,0.2,0.2,0.3c0.1,0.1,0.3,0.2,0.4,0.2c0.1,0,0.2-0.1,0.3-0.1c0.2-0.2,0.5-0.4,0.7-0.6c0.2-0.2,0.3-0.3,0.6-0.5
          c0.3-0.2,0.7-0.4,1-0.3c0.5,0,1,0.3,1.4,0.5c0.2,0.1,0.4,0.3,0.6,0.4c0.4,0.4,0.7,1,0.8,1.6c0,0.2,0.1,0.4,0,0.5
          c0,0.7-0.2,1.4-0.5,2.1c-0.2,0.3-0.3,0.6-0.6,0.8C44.6,154.7,44.5,154.8,44.3,154.9z"/>
        <path id="path10_44_" class="st2" d="M45.9,145.8c0.5-0.2,1.1-0.1,1.5,0.1c0.1,0.1,0.3,0.3,0.4,0.5c0.1,0.2,0.1,0.5,0,0.7
          c-0.1,0.3-0.4,0.5-0.7,0.7c-0.2,0.1-0.5,0.2-0.7,0.2c-0.3,0-0.5,0-0.8-0.1c-0.3-0.1-0.6-0.4-0.7-0.7c-0.1-0.2,0-0.5,0.1-0.7
          C45.2,146.2,45.5,146,45.9,145.8z"/>
        <path id="path12_44_" class="st2" d="M45.9,148.8c0.2-0.4,0.6-0.5,1-0.6c0.2,0,0.4,0,0.6,0.2c0.3,0.1,0.5,0.3,0.6,0.6
          c0,0.3,0,0.7,0.1,1c0.2,0.7,0.6,1.2,1.1,1.7c0.2,0.3,0.6,0.5,0.8,0.8c-0.4,0-0.8-0.1-1.1-0.1c-0.5-0.1-0.9-0.2-1.3-0.5
          c-0.2-0.1-0.5-0.2-0.6-0.4c-0.3-0.2-0.6-0.6-0.8-0.9c-0.2-0.4-0.4-0.8-0.5-1.3C45.8,149.2,45.9,149,45.9,148.8z"/>
      </g>
      </svg>
