<svg xmlns="http://www.w3.org/2000/svg" id="svg21" width="598" height="407.68" data-name="Layer 1" viewBox="0 0 299 203.84"><defs id="defs1"><style id="style1">.cls-1,.cls-4{fill:none;stroke:#4374ba;stroke-miterlimit:10;stroke-width:2px}.cls-4{fill:#fff;stroke:#fff}</style><path id="rect21" d="M-10.885-11.379h48.789v50.496h-48.789Z"/></defs><g id="g21" transform="translate(396.54 -38.221)"><rect id="rect1" width="297" height="201.84" x="-395.54" y="39.221" fill="none" class="cls-1" rx="5"/><g id="g24" transform="translate(3.16 -2)"><rect id="rect3" width="105.279" height="17.449" x="-302.839" y="222.131" rx="6.639" ry="6.639" style="fill:#4474ba;stroke:#4374ba;stroke-width:2px;stroke-miterlimit:10"/><rect id="rect4" width="13.94" height="13.94" x="-298.02" y="223.89" rx="4" style="fill:#fff;stroke:#4374ba;stroke-width:2px;stroke-miterlimit:10"/><g id="g9" fill="#fff" stroke="#fff" stroke-miterlimit="10" stroke-width="2" transform="translate(92 -2)"><rect id="rect6" width="10" height="10" x="-307.2" y="227.77" class="cls-4" rx="2"/><rect id="rect7" width="10" height="10" x="-327.2" y="227.77" class="cls-4" rx="2"/><rect id="rect8" width="10" height="10" x="-347.2" y="227.77" class="cls-4" rx="2"/><rect id="rect9" width="10" height="10" x="-367.2" y="227.77" class="cls-4" rx="2"/></g></g><rect id="rect10" width="289.421" height="9.251" x="-391.54" y="43.318" class="cls-1" rx="4.626" ry="4.626"/><text id="text20" x="-225.096" y="146.938" stroke-miterlimit="10" stroke-width="2" style="font-weight:700;font-size:24px;font-family:Lato-Bold,Lato;letter-spacing:-.02em;fill:#4374ba">BigGnome</text><rect id="rect23" width="44.279" height="5.548" x="-148.727" y="45.169" class="cls-1" rx="2.774" ry="2.774" style="fill:#4474ba;fill-opacity:1;stroke:none"/><rect id="rect24" width="8.243" height="5.548" x="-388.727" y="45.169" class="cls-1" rx="2.76" ry="2.76" style="fill:#4474ba;fill-opacity:1;stroke:none"/></g></svg>