<svg xmlns="http://www.w3.org/2000/svg" id="svg21" width="598" height="407.68" data-name="Layer 1" viewBox="0 0 299 203.84"><defs id="defs1"><style id="style1">.cls-1{fill:none;stroke:#4374ba;stroke-miterlimit:10;stroke-width:2px}</style><path id="rect21" d="M-10.885-11.379h48.789v50.496h-48.789Z"/></defs><rect id="rect1" width="297" height="201.84" x="1" y="1" fill="none" class="cls-1" rx="5"/><text id="text20" x="196.872" y="108.873" stroke-miterlimit="10" stroke-width="2" style="font-weight:700;font-size:24px;font-family:Lato-Bold,Lato;letter-spacing:-.02em;fill:#4374ba">G-Unity</text><path id="path1" d="M22.845.153H5.38C2.4.153 0 2.553 0 5.533V198.46c0 2.98 2.4 5.38 5.38 5.38h17.465Z" class="cls-2" style="font-weight:700;font-size:24px;font-family:Lato-Bold,Lato;fill:#4474ba;stroke:none;stroke-width:2px;stroke-miterlimit:10"/><rect id="rect8-5-7" width="2.687" height="2.687" x="15.055" y="186.562" rx=".235" ry=".235" style="fill:#fff;fill-opacity:1;stroke-width:.0282247"/><rect id="rect9-6-0" width="2.687" height="2.687" x="15.055" y="190.719" rx=".235" ry=".235" style="fill:#fff;fill-opacity:1;stroke-width:.0282247"/><rect id="rect10-2-9" width="2.687" height="2.687" x="15.055" y="194.854" rx=".235" ry=".235" style="fill:#fff;fill-opacity:1;stroke-width:.0282247"/><rect id="rect11-3" width="2.687" height="2.687" x="5.705" y="186.562" rx=".235" ry=".235" style="fill:#fff;fill-opacity:1;stroke-width:.0282247"/><rect id="rect12-6" width="2.687" height="2.687" x="5.705" y="190.719" rx=".235" ry=".235" style="fill:#fff;fill-opacity:1;stroke-width:.0282247"/><rect id="rect13-0" width="2.687" height="2.687" x="5.705" y="194.854" rx=".235" ry=".235" style="fill:#fff;fill-opacity:1;stroke-width:.0282247"/><rect id="rect14-6" width="2.687" height="2.687" x="10.415" y="186.562" rx=".235" ry=".235" style="fill:#fff;fill-opacity:1;stroke-width:.0282247"/><rect id="rect15-2" width="2.687" height="2.687" x="10.415" y="190.719" rx=".235" ry=".235" style="fill:#fff;fill-opacity:1;stroke-width:.0282247"/><rect id="rect16-6" width="2.687" height="2.687" x="10.415" y="194.854" rx=".235" ry=".235" style="fill:#fff;fill-opacity:1;stroke-width:.0282247"/><g id="g19" transform="rotate(90 134.262 345.574)scale(1.44274)"><rect id="rect5" width="8.262" height="8.262" x="-134.331" y="320.5" rx="4.131" style="letter-spacing:-.03em;fill:#fff;stroke:none;stroke-width:2px;stroke-miterlimit:10"/><rect id="rect17" width="8.262" height="8.262" x="-124.331" y="320.5" rx="4.131" style="letter-spacing:-.03em;fill:#fff;stroke:none;stroke-width:2px;stroke-miterlimit:10"/><rect id="rect18" width="8.262" height="8.262" x="-114.331" y="320.5" rx="4.131" style="letter-spacing:-.03em;fill:#fff;stroke:none;stroke-width:2px;stroke-miterlimit:10"/><rect id="rect19" width="8.262" height="8.262" x="-104.331" y="320.5" rx="4.131" style="letter-spacing:-.03em;fill:#fff;stroke:none;stroke-width:2px;stroke-miterlimit:10"/></g><path id="path19" d="M298 11.845V5.38C298 2.4 295.6 0 292.62 0H5.38C2.4 0 0 2.4 0 5.38v6.465z" class="cls-2" style="font-weight:700;font-size:24px;font-family:Lato-Bold,Lato;fill:#4474ba;stroke:none;stroke-width:2px;stroke-miterlimit:10"/><path id="path20" d="M289.257 5.922h-51.52z" style="font-weight:700;font-size:24px;font-family:Lato-Bold,Lato;letter-spacing:-.02em;fill:#4374ba;stroke:#fff;stroke-width:2px;stroke-miterlimit:10"/><rect id="rect20" width="11.836" height="5.427" x="5.56" y="3.209" class="cls-1" rx="2.714" ry="2.714" style="fill:#fff;fill-opacity:1;stroke:none"/></svg>