<svg xmlns="http://www.w3.org/2000/svg" width="600" height="408.8" data-name="Layer 1" viewBox="0 0 300 204.4"><path d="M1 191.555v6.465c0 2.98 2.4 5.38 5.38 5.38h287.24c2.98 0 5.38-2.4 5.38-5.38v-6.465z" style="font-weight:700;font-size:24px;font-family:Lato-Bold,Lato;fill:#4474ba;stroke:none;stroke-width:2px;stroke-miterlimit:10"/><rect width="298" height="202.19" x="1" y="1" rx="5" style="fill:none;stroke:#4374ba;stroke-width:2px;stroke-miterlimit:10"/><path d="M293.521 198.17h-51.52z" style="font-weight:700;font-size:24px;font-family:Lato-Bold,Lato;letter-spacing:-.02em;fill:#4374ba;stroke:#fff;stroke-width:2px;stroke-miterlimit:10"/><text x="285.256" y="111.02" style="font-weight:700;font-size:24px;font-family:Lato-Bold,Lato;text-align:end;letter-spacing:-.01em;text-anchor:end;fill:#4374ba;stroke:none;stroke-width:2px;stroke-miterlimit:10">Hybrid</text><g transform="translate(265.2 -127.168)"><rect width="8.262" height="8.262" x="-134.331" y="320.5" rx="4.131" style="letter-spacing:-.03em;fill:#fff;stroke:none;stroke-width:2px;stroke-miterlimit:10"/><rect width="8.262" height="8.262" x="-124.331" y="320.5" rx="4.131" style="letter-spacing:-.03em;fill:#fff;stroke:none;stroke-width:2px;stroke-miterlimit:10"/><rect width="8.262" height="8.262" x="-114.331" y="320.5" rx="4.131" style="letter-spacing:-.03em;fill:#fff;stroke:none;stroke-width:2px;stroke-miterlimit:10"/><rect width="8.262" height="8.262" x="-104.331" y="320.5" rx="4.131" style="letter-spacing:-.03em;fill:#fff;stroke:none;stroke-width:2px;stroke-miterlimit:10"/></g><g transform="translate(252.264 -126.665)"><rect width="9.069" height="2.006" x="-244.764" y="320.518" rx="0" ry="0" style="opacity:1;fill:#fff;fill-opacity:1;stroke-width:.011025"/><rect width="9.069" height="2.006" x="-244.764" y="323.636" rx="0" ry="0" style="opacity:1;fill:#fff;fill-opacity:1;stroke-width:.011025"/><rect width="9.069" height="2.006" x="-244.764" y="326.755" rx="0" ry="0" style="opacity:1;fill:#fff;fill-opacity:1;stroke-width:.011025"/></g><rect width="11.577" height="2.006" x="23.246" y="196.972" rx="1.003" ry="1.003" style="fill:#fff;fill-opacity:1;stroke-width:.0124566"/></svg>