<?xml version="1.0" encoding="UTF-8"?>
<!-- Created with Inkscape (http://www.inkscape.org/) -->
<svg width="70" height="70" version="1.1" viewBox="0 0 18.521 18.521" xmlns="http://www.w3.org/2000/svg">
 <path d="m12.285 4.1593a3.8687 3.8687 0 0 1 2.0355-1.1519l0.77374-0.049905c0.29952 0.025 0.59153 0.10108 0.86609 0.22588 0.43158 0.25334 0.80741 0.59403 1.1007 1.0009 0.43441 0.58405 0.73133 1.2567 0.87232 1.9693q0.03773 0.36442 0.02358 0.73131c-0.17735-0.17721-0.23583-0.44677-0.36932-0.65019a3.2447 3.2447 0 0 0-0.63148-0.76626c-0.35706-0.34942-0.83614-0.54911-1.3353-0.5541-0.18726 0.025-0.39055-0.00892-0.56412 0.066135-0.53035 0.11858-0.9759 0.44677-1.354 0.81617-0.1099 0.14353-0.25188 0.26956-0.36178 0.41182-0.1 0.18593-0.24338 0.35319-0.32829 0.54786a4.3679 4.3679 0 0 0-0.48422 1.7971c0.02358 0.24334 0.02358 0.48671 0.05 0.73131 0.06745 0.15976 0.03301 0.39064 0.21838 0.47922 0.125 0.011351 0.24952-0.02123 0.3547-0.093581q0.42073-0.30574 0.75501-0.70511c0.28725-0.23461 0.48795-0.54786 0.75751-0.7987 0.15094-0.11858 0.25329-0.27829 0.39055-0.39064q0.4179-0.41182 0.91104-0.73131a1.6224 1.6224 0 0 1 0.83991-0.23588 1.3353 1.3353 0 0 1 0.89854 0.53039c0.30329 0.42805 0.5204 0.91102 0.63893 1.4214q0.0599 0.39687 0.06886 0.79871a9.235 9.235 0 0 1-0.47172 2.6582 3.9935 3.9935 0 0 1-0.41177 0.85611c-0.05849 0.06862-0.09245 0.16848-0.17594 0.19471 0.0095-0.17721 0.075-0.35442 0.09245-0.53038q0.04716-0.29201 0.02358-0.58905c0.05-0.30201-0.0095-0.60527-0.01887-0.91102-0.075-0.30202-0.08254-0.62149-0.17452-0.91102a2.4959 2.4959 0 0 0-0.23725-0.614 1.248 1.248 0 0 0-0.23442-0.32824 0.82366 0.82366 0 0 0-0.42922-0.17721q-0.17735 0.037257-0.34432 0.10981-0.39291 0.27206-0.69011 0.6502c-0.19244 0.16848-0.35187 0.36942-0.5803 0.50543-0.31838 0.20093-0.68888 0.37814-1.0757 0.31201-0.52917-0.025-1.0171-0.27084-1.4714-0.52166a3.1199 3.1199 0 0 1-0.5803-0.45427 2.9951 2.9951 0 0 1-0.79746-1.6398 1.1856 1.1856 0 0 1-0.033013-0.57157c-0.0095-0.75752 0.23584-1.4888 0.55408-2.1702q0.2547-0.47548 0.5978-0.89105 0.14103-0.20843 0.33064-0.37687zm-6.044 10.202a3.8687 3.8687 0 0 1-2.0342 1.1519l-0.78124 0.04991a2.4959 2.4959 0 0 1-0.86482-0.22711 3.5567 3.5567 0 0 1-1.102-1.0009 4.8671 4.8671 0 0 1-0.87359-1.9681 4.9919 4.9919 0 0 1-0.023581-0.73132c0.17452 0.17721 0.23442 0.44677 0.36932 0.65145 0.18443 0.26706 0.36932 0.56284 0.63021 0.76501 0.358 0.34942 0.83614 0.5491 1.3353 0.5541 0.18584-0.025 0.39196 0.0089 0.56412-0.06612 0.53035-0.11858 0.9759-0.44677 1.3553-0.81618 0.10849-0.14353 0.24952-0.26956 0.35942-0.41182 0.10235-0.18594 0.2448-0.35319 0.32829-0.54786 0.29197-0.5566 0.458-1.1706 0.48795-1.7996-0.023581-0.24334-0.023581-0.48671-0.05-0.73131-0.067446-0.15976-0.033013-0.39065-0.2198-0.47923a0.53663 0.53663 0 0 0-0.35187 0.092351 4.3679 4.3679 0 0 0-0.75751 0.70635c-0.28442 0.23461-0.48672 0.54661-0.75628 0.7987-0.14999 0.11858-0.25188 0.27829-0.38913 0.39064a6.2399 6.2399 0 0 1-0.91104 0.73131 1.6224 1.6224 0 0 1-0.84114 0.23461 1.3353 1.3353 0 0 1-0.89977-0.52914 4.1183 4.1183 0 0 1-0.63898-1.4214 6.2399 6.2399 0 0 1-0.06604-0.79871 9.235 9.235 0 0 1 0.47073-2.6582 3.9935 3.9935 0 0 1 0.41177-0.85611c0.058486-0.068635 0.092446-0.16848 0.17593-0.19471-0.00946 0.17721-0.075 0.35442-0.092446 0.53038q-0.042446 0.29329-0.023581 0.58905c-0.05 0.30201 0.00946 0.60527 0.014149 0.91102 0.077351 0.30201 0.084905 0.62149 0.17735 0.91102q0.075 0.32824 0.23961 0.62149 0.092446 0.18343 0.23442 0.32824a0.7987 0.7987 0 0 0 0.42922 0.17471q0.17829-0.037257 0.34432-0.11231 0.39574-0.27329 0.68888-0.65019c0.1948-0.16848 0.35423-0.36942 0.5803-0.50543 0.32074-0.20093 0.69016-0.37814 1.0758-0.31197 0.53162 0.025 1.0183 0.27079 1.4726 0.52165q0.31697 0.19093 0.57908 0.45427c0.43064 0.44927 0.71006 1.0233 0.79869 1.6398a1.1981 1.1981 0 0 1 0.033013 0.57157c0.00946 0.75752-0.23725 1.4888-0.55535 2.169a5.3663 5.3663 0 0 1-0.59653 0.89106 1.9968 1.9968 0 0 1-0.32829 0.37814m1.6061-9.537c0.18726-0.087351 0.39055-0.13103 0.59653-0.12981 0.35942-0.04623 0.72261 0.037257 1.0258 0.23588 0.1599 0.14103 0.34432 0.28451 0.41932 0.49545a0.91102 0.91102 0 0 1-0.05 0.76501 1.56 1.56 0 0 1-0.73133 0.72383 1.6723 1.6723 0 0 1-0.73879 0.20716 1.6224 1.6224 0 0 1-0.82491-0.10235 1.1606 1.1606 0 0 1-0.69888-0.73131c-0.1-0.24334 0.00946-0.51167 0.11131-0.73131 0.21225-0.33074 0.52413-0.58655 0.89104-0.73256m0.05 3.1536c0.20942-0.37937 0.63898-0.57157 1.0596-0.5878 0.21839 0.013676 0.43158 0.067405 0.63021 0.15848a0.99838 0.99838 0 0 1 0.58903 0.65019q0.0047 0.52664 0.10093 1.0408c0.18443 0.71509 0.67266 1.2954 1.1931 1.8008 0.25942 0.30079 0.61398 0.5204 0.87359 0.83115a6.9887 6.9887 0 0 1-1.1931-0.12981 3.9935 3.9935 0 0 1-1.379-0.48921 3.1199 3.1199 0 0 1-0.68516-0.458 3.8687 3.8687 0 0 1-0.83986-0.93223 2.9951 2.9951 0 0 1-0.48795-1.3628q0.023581-0.27329 0.13867-0.52165" fill="#fff" stroke-width="1.144"/>
</svg>
